<?xml version="1.0" standalone="no"?>
<!DOCTYPE svg PUBLIC "-//W3C//DTD SVG 20010904//EN"
 "http://www.w3.org/TR/2001/REC-SVG-20010904/DTD/svg10.dtd">
<svg version="1.0" xmlns="http://www.w3.org/2000/svg"
 width="256.000000pt" height="256.000000pt" viewBox="0 0 256.000000 256.000000"
 preserveAspectRatio="xMidYMid meet">
<metadata>
Created by potrace 1.14, written by Peter Selinger 2001-2017
</metadata>
<g transform="translate(0.000000,256.000000) scale(0.100000,-0.100000)"
fill="#000000" stroke="none">
<path d="M0 1280 l0 -1280 1280 0 1280 0 0 1280 0 1280 -1280 0 -1280 0 0
-1280z m974 673 c-5 -5 -12 -12 -16 -18 -4 -6 -8 -2 -8 8 0 9 7 17 17 17 9 0
12 -3 7 -7z m-94 -83 c-8 -5 -19 -10 -25 -10 -5 0 -3 5 5 10 8 5 20 10 25 10
6 0 3 -5 -5 -10z m-140 -45 c-7 -9 -15 -13 -19 -10 -3 3 1 10 9 15 21 14 24
12 10 -5z m528 -20 c-3 -3 -9 2 -12 12 -6 14 -5 15 5 6 7 -7 10 -15 7 -18z
m-58 -10 c0 -2 -13 -11 -30 -20 -38 -19 -40 -11 -2 9 31 17 32 18 32 11z
m-130 -70 c0 -2 -10 -9 -22 -15 -22 -11 -22 -10 -4 4 21 17 26 19 26 11z m-55
-35 c-3 -5 -12 -10 -18 -10 -7 0 -6 4 3 10 19 12 23 12 15 0z m-265 -13 c0 -2
-13 -13 -30 -25 -16 -13 -30 -18 -30 -13 0 6 12 17 28 25 29 17 32 18 32 13z
m1173 -71 c46 -19 73 -46 55 -57 -9 -6 -5 -9 13 -9 15 0 37 -8 49 -18 22 -18
22 -18 -26 -21 -61 -3 -72 -11 -15 -11 40 0 43 -2 37 -22 -3 -13 -6 -34 -6
-48 0 -25 0 -25 -97 -25 l-98 0 -7 -45 c-12 -79 -9 -265 4 -278 8 -8 46 -12
104 -12 90 0 92 -1 96 -25 3 -13 3 -27 0 -30 -10 -10 -1521 -5 -1527 5 -3 6
-1 10 4 10 6 0 11 9 11 20 0 19 7 20 94 20 68 0 97 4 105 14 8 9 11 57 9 147
l-3 134 -60 6 -60 6 58 1 c42 2 57 6 55 15 -3 8 -35 13 -100 15 l-95 3 -6 37
c-3 20 -9 46 -12 57 -5 16 0 24 19 34 14 8 23 17 21 21 -5 8 30 42 60 58 32
18 1275 16 1318 -2z m5 -243 c-15 -2 -42 -2 -60 0 -18 2 -6 4 27 4 33 0 48 -2
33 -4z m75 -382 c27 -1 27 -1 25 -68 l-1 -68 -7 60 -7 60 -1 -61 c-3 -86 -14
-98 -105 -104 -44 -3 -73 -1 -69 4 6 10 -1022 1 -1038 -9 -6 -4 -15 -3 -21 1
-7 4 -44 6 -84 5 -67 -2 -74 0 -93 23 -24 32 -32 19 -32 -55 0 -48 -1 -49 -30
-49 -17 0 -30 5 -31 13 0 6 -4 3 -9 -8 -6 -14 -9 3 -9 53 -1 41 3 73 9 73 6 1
16 2 23 3 8 1 12 20 13 56 l1 55 -7 -50 -7 -50 -1 60 -2 60 728 -1 c400 -1
739 -2 755 -3z m-849 -266 c-5 -13 -38 -15 -210 -15 -112 0 -204 3 -204 8 0 4
85 6 190 4 118 -2 196 1 207 7 23 14 23 14 17 -4z m491 -5 c101 0 184 4 195
10 16 8 18 8 14 -5 -9 -23 -409 -23 -418 0 -4 13 -2 13 14 5 11 -6 94 -10 195
-10z m-916 -58 c12 -2 31 4 42 14 20 18 27 6 7 -14 -17 -17 -78 -15 -100 5
-10 9 -18 27 -18 41 0 24 1 24 23 -9 12 -19 33 -35 46 -37z m664 21 c24 -27
44 -29 75 -7 12 8 22 10 22 5 0 -6 -13 -17 -30 -26 -26 -13 -34 -14 -64 -1
-35 14 -53 46 -40 68 6 9 9 8 12 -2 3 -8 14 -25 25 -37z m-179 -14 c-21 -24
-80 -25 -106 -2 -29 26 -21 36 11 14 39 -28 55 -26 83 7 16 20 24 24 26 15 2
-8 -4 -23 -14 -34z m703 7 c-29 -44 -117 -37 -126 9 -3 19 -2 19 15 4 38 -33
63 -33 92 -1 30 33 43 25 19 -12z"/>
<path d="M2008 1463 c6 -2 18 -2 25 0 6 3 1 5 -13 5 -14 0 -19 -2 -12 -5z"/>
<path d="M959 1373 c-6 -16 -9 -84 -7 -161 3 -153 3 -152 91 -152 100 0 99 -2
96 168 -1 81 -7 153 -12 160 -6 8 -36 12 -83 12 -72 0 -75 -1 -85 -27z m155
-2 c4 -5 -25 -11 -64 -13 -66 -3 -92 5 -52 15 32 9 111 7 116 -2z"/>
<path d="M1227 1387 c-16 -11 -17 -30 -15 -162 l3 -150 48 -9 c29 -6 62 -6 85
0 l37 9 3 150 c3 174 3 175 -88 175 -31 0 -64 -6 -73 -13z m111 -24 c-21 -2
-55 -2 -75 0 -21 2 -4 4 37 4 41 0 58 -2 38 -4z"/>
<path d="M1477 1393 c-17 -16 -4 -22 37 -17 25 4 61 3 80 0 29 -6 36 -11 35
-29 -1 -17 -2 -18 -6 -4 -4 14 -16 17 -79 17 l-74 0 0 -144 c0 -163 -4 -156
86 -156 95 0 94 -2 94 168 0 102 -4 152 -12 160 -13 13 -149 17 -161 5z"/>
</g>
</svg>
